HIERARCHY
ROOT Hips
{
	OFFSET -3.958830 18.904000 13.208200
	CHANNELS 6 Xposition Yposition Zposition Zrotation Yrotation Xrotation 
	JOINT LHipJoint
	{
		OFFSET 0.000000 0.000000 0.000000
		CHANNELS 3 Zrotation Yrotation Xrotation
		JOINT LeftUpLeg
		{
			OFFSET 1.800000 -1.400000 0.085000
			CHANNELS 3 Zrotation Yrotation Xrotation
			JOINT LeftLeg
			{
				OFFSET 2.215000 -6.000000 0.000000
				CHANNELS 3 Zrotation Yrotation Xrotation
				JOINT LeftFoot
				{
					OFFSET 2.500000 -6.900000 0.000000
					CHANNELS 3 Zrotation Yrotation Xrotation
					JOINT LeftToeBase
					{
						OFFSET 0.200000 -0.500000 1.950000
						CHANNELS 3 Zrotation Yrotation Xrotation
						End Site
						{
							OFFSET 0.000000 0.000000 0.000000
						}
					}
				}
			}
		}
	}
	JOINT RHipJoint
	{
		OFFSET 0.000000 0.000000 0.000000
		CHANNELS 3 Zrotation Yrotation Xrotation
		JOINT RightUpLeg
		{
			OFFSET -1.800000 -1.400000 0.085000
			CHANNELS 3 Zrotation Yrotation Xrotation
			JOINT RightLeg
			{
				OFFSET -2.215000 -6.000000 0.000000
				CHANNELS 3 Zrotation Yrotation Xrotation
				JOINT RightFoot
				{
					OFFSET -2.500000 -6.900000 0.000000
					CHANNELS 3 Zrotation Yrotation Xrotation
					JOINT RightToeBase
					{
						OFFSET -0.200000 -0.500000 1.950000
						CHANNELS 3 Zrotation Yrotation Xrotation
						End Site
						{
							OFFSET 0.000000 0.000000 0.000000
						}
					}
				}
			}
		}
	}
	JOINT LowerBack
	{
		OFFSET 0.000000 0.000000 0.000000
		CHANNELS 3 Zrotation Yrotation Xrotation
		JOINT Spine
		{
			OFFSET -0.087000 1.940000 -0.288900
			CHANNELS 3 Zrotation Yrotation Xrotation
			JOINT Spine1
			{
				OFFSET 0.000000 1.950000 0.060000
				CHANNELS 3 Zrotation Yrotation Xrotation
				JOINT Neck
				{
					OFFSET 0.000000 0.000000 0.000000
					CHANNELS 3 Zrotation Yrotation Xrotation
					JOINT Neck1
					{
						OFFSET 0.000000 1.600000 0.340000
						CHANNELS 3 Zrotation Yrotation Xrotation
						JOINT Head
						{
							OFFSET 0.000000 1.667000 -0.240000
							CHANNELS 3 Zrotation Yrotation Xrotation
							End Site
							{
								OFFSET 0.000000 0.000000 0.000000
							}
						}
					}
				}
				JOINT LeftShoulder
				{
					OFFSET 0.000000 0.000000 0.000000
					CHANNELS 3 Zrotation Yrotation Xrotation
					JOINT LeftArm
					{
						OFFSET 2.700000 1.550000 -0.730000
						CHANNELS 3 Zrotation Yrotation Xrotation
						JOINT LeftForeArm
						{
							OFFSET 5.450000 0.000000 0.000000
							CHANNELS 3 Zrotation Yrotation Xrotation
							JOINT LeftHand
							{
								OFFSET 3.450000 0.000000 0.000000
								CHANNELS 3 Zrotation Yrotation Xrotation
								JOINT LeftHandIndex1
								{
									OFFSET 0.750000 0.000000 0.000000
									CHANNELS 3 Zrotation Yrotation Xrotation
									End Site
									{
										OFFSET 0.000000 0.000000 0.000000
									}
								}
							}
						}
					}
				}
				JOINT RightShoulder
				{
					OFFSET 0.000000 0.000000 0.000000
					CHANNELS 3 Zrotation Yrotation Xrotation
					JOINT RightArm
					{
						OFFSET -2.700000 1.550000 -0.730000
						CHANNELS 3 Zrotation Yrotation Xrotation
						JOINT RightForeArm
						{
							OFFSET -5.450000 0.000000 0.000000
							CHANNELS 3 Zrotation Yrotation Xrotation
							JOINT RightHand
							{
								OFFSET -3.450000 0.000000 0.000000
								CHANNELS 3 Zrotation Yrotation Xrotation
								JOINT RightHandIndex1
								{
									OFFSET -0.750000 0.000000 0.000000
									CHANNELS 3 Zrotation Yrotation Xrotation
									End Site
									{
										OFFSET 0.000000 0.000000 0.000000
									}
								}
							}
						}
					}
				}
			}
		}
	}
}
MOTION
Frames: 10
Frame Time: 0.016667
-0.464110 16.933590 -0.972030 -9.938558 -56.326041 15.226561 -15.404414 13.772397 4.354953 13.372221 -3.074025 -20.925850 -11.492234 4.046159 0.076043 -0.018348 3.583866 3.202522 0.159730 0.190110 0.074060 17.746195 -10.333561 2.489124 -11.263765 0.057156 -3.565226 1.331862 -3.433835 6.584795 -0.248839 -3.247750 3.314837 0.104990 0.037080 -0.034030 -2.202410 -4.473986 -8.159470 -0.500714 3.014867 15.052964 -15.336344 1.982181 -15.240755 13.451572 -9.703935 -11.973098 -23.175606 17.335485 27.719373 4.499850 11.561160 -3.954730 -20.268327 3.899492 -4.842735 -46.168982 -13.593667 4.654860 -5.560766 -2.531739 0.068297 -3.809700 2.891861 0.188780 -0.040940 0.065700 0.067500 -1.914644 5.103043 9.326439 -19.685880 -33.403925 5.831124 -8.841680 -0.868235 0.202860 2.990424 -1.002789 -0.068440 0.118700 -0.037550 -0.052800 
-0.470800 16.923510 -1.060210 -10.013321 -57.419237 15.444885 -15.426703 13.700836 4.355853 13.679558 -3.057116 -20.249267 -11.080256 3.800496 -1.156810 -0.016743 3.612716 3.204347 0.150740 0.188160 0.069980 17.751837 -10.309725 2.427234 -11.063208 -0.030866 -4.101554 1.480596 -3.497700 7.036919 -0.231987 -3.225305 3.323170 0.109620 0.054050 -0.029970 -2.275156 -4.427354 -8.107473 -1.213332 2.665984 14.229304 -14.179466 1.758961 -14.016565 11.989773 -9.399489 -11.525950 -21.929507 18.116875 26.602903 4.326370 13.045240 -4.496810 -22.331332 2.806635 -4.946147 -41.995456 -14.121535 3.972407 -4.893733 -3.217996 0.028891 -3.842733 2.877270 0.182100 -0.020920 0.056400 0.065380 2.639885 4.796029 9.682804 -15.153509 -35.477898 5.296010 -6.577668 -0.422115 0.000954 2.854993 -1.066159 -0.079320 0.122110 -0.031120 -0.058310 
-0.470560 16.907480 -1.154420 -9.886064 -58.197083 15.345730 -15.444041 13.658824 4.377644 14.049605 -3.081409 -19.751859 -10.860478 3.638648 -2.047340 -0.014635 3.666054 3.196274 0.133730 0.171140 0.074960 17.753336 -10.292322 2.361850 -10.847365 -0.092021 -4.697342 1.457708 -3.548544 7.666201 -0.217039 -3.182615 3.334672 0.103810 0.063960 -0.025620 -2.329859 -4.435876 -8.066559 -1.957555 2.118953 13.700121 -13.250607 1.353144 -12.769259 10.817447 -8.751421 -11.343028 -20.117135 18.914454 26.155858 4.059690 14.743730 -5.094770 -24.101307 1.115331 -4.831806 -37.519709 -14.885354 3.561053 -3.886370 -2.162147 -0.058536 -3.894775 2.838437 0.186690 -0.004570 0.053220 0.056000 6.482837 4.960546 10.260566 -8.783803 -36.158842 3.840789 -3.731488 -0.198400 -0.265396 2.763574 -1.067642 -0.095460 0.122920 -0.023660 -0.072930 
-0.464680 16.894640 -1.254200 -9.426034 -58.623079 14.624279 -15.450936 13.663744 4.367595 14.291853 -3.079492 -19.342458 -10.563499 3.569393 -2.378789 -0.008777 3.689128 3.192582 0.122510 0.154850 0.082070 17.758758 -10.276837 2.315995 -10.720147 -0.183138 -4.895518 1.597216 -3.656318 8.235133 -0.217249 -3.175977 3.333185 0.090300 0.059850 -0.018870 -2.357981 -4.500730 -8.019366 -2.540655 1.662918 13.463461 -12.389347 1.160427 -11.265012 9.730724 -8.330577 -11.506240 -19.388581 19.502164 26.140066 3.736570 15.860970 -5.533280 -24.733876 -0.565179 -4.541882 -34.305582 -16.118520 3.402151 -3.009985 -1.728879 -0.095241 -3.924703 2.817355 0.197220 -0.002720 0.059520 0.048810 9.076074 5.558785 10.951363 -1.136694 -36.218698 1.825701 -0.800171 0.184676 -0.519335 2.718236 -1.038765 -0.100220 0.114680 -0.021530 -0.083550 
-0.460990 16.876670 -1.356240 -8.748590 -59.136143 13.432767 -15.447826 13.653174 4.361681 14.583355 -3.033368 -18.582059 -10.549990 3.539246 -2.780547 0.007077 3.757161 3.173545 0.110560 0.137830 0.092220 17.772316 -10.283777 2.259749 -10.765308 -0.297862 -4.924847 1.676877 -3.800848 8.969577 -0.222787 -3.194129 3.324239 0.075390 0.052330 -0.014990 -2.393003 -4.508089 -7.975071 -3.012346 1.111883 13.064568 -11.984433 0.947160 -9.396822 8.624178 -7.739403 -11.751920 -18.487611 20.069373 27.058682 3.540270 16.923310 -5.836790 -24.756354 -2.398748 -3.989421 -30.855799 -17.179083 3.086185 -2.177468 -1.921038 -0.114549 -3.945938 2.794760 0.211050 -0.002750 0.068140 0.038610 10.944530 6.291270 11.462891 7.389248 -34.527676 -0.593307 1.429089 1.530744 -0.620160 2.690309 -1.007729 -0.105660 0.107980 -0.019360 -0.096750 
-0.444330 16.869790 -1.463260 -8.095192 -60.143154 11.967105 -15.409892 13.661276 4.338542 14.745676 -2.911181 -17.382189 -10.483233 3.547982 -3.017257 0.014737 3.820272 3.155044 0.119320 0.152040 0.108420 17.803913 -10.373377 2.196610 -10.897701 -0.386908 -5.341291 1.426084 -3.908237 10.214695 -0.227361 -3.184573 3.318004 0.081920 0.040520 -0.017990 -2.518935 -4.390413 -7.913402 -3.019287 0.544393 13.031838 -11.580582 0.771629 -7.616661 7.143287 -7.479465 -12.144476 -18.580602 21.150916 28.128131 3.751850 18.023730 -6.368220 -25.030570 -4.454232 -3.169790 -26.835131 -17.480500 2.522166 -1.604175 -2.471721 -0.126909 -3.944457 2.774713 0.230090 -0.011700 0.084490 0.033950 13.726927 7.456134 11.859985 13.477036 -31.501006 -1.885104 1.609344 0.117599 -0.543974 2.726762 -0.984230 -0.110120 0.114190 -0.023740 -0.107090 
-0.418780 16.860940 -1.579170 -7.627663 -61.302770 10.744587 -15.363585 13.684434 4.322886 14.965507 -2.828858 -16.615005 -10.339668 3.596736 -2.862957 0.014477 3.847334 3.140835 0.129150 0.166030 0.124530 17.831200 -10.494018 2.143443 -10.921647 -0.390811 -6.217402 1.224624 -4.022301 11.835094 -0.223268 -3.154803 3.314359 0.085890 0.023700 -0.016540 -2.650822 -4.229139 -7.865409 -3.134213 0.211333 13.426417 -10.925370 0.679984 -6.508104 5.771585 -7.262779 -12.486142 -18.589278 22.050063 29.048073 3.806690 19.032190 -7.077680 -25.513964 -6.505736 -2.350413 -22.596347 -17.359989 1.730841 -0.910884 -3.572775 -0.128807 -3.932517 2.767518 0.247840 -0.022460 0.102190 0.027540 16.655149 8.818645 12.151138 18.585285 -28.264897 -2.727919 2.014859 -1.253493 -0.462739 2.750491 -0.987313 -0.108730 0.113120 -0.027290 -0.117010 
-0.386200 16.848570 -1.698820 -7.352118 -62.559297 9.826768 -15.331333 13.734029 4.303481 15.266377 -2.743741 -16.122696 -10.094165 3.676362 -2.477173 0.005365 3.864661 3.129280 0.147510 0.191910 0.134940 17.846608 -10.587332 2.094941 -10.709640 -0.314454 -7.376351 0.794975 -4.025449 13.479244 -0.210882 -3.098799 3.320291 0.101450 0.014180 -0.017880 -2.769853 -4.153777 -7.799230 -2.923403 0.017085 13.976413 -9.908645 0.785426 -5.392729 4.382043 -7.605732 -12.910915 -20.019600 23.001672 28.875076 3.643760 19.691160 -7.722330 -25.827153 -8.400046 -1.666612 -19.546906 -17.712251 1.140460 0.617414 -4.275533 -0.187785 -3.928271 2.768204 0.257250 -0.031330 0.113640 0.029770 19.562857 10.514659 12.573781 22.883699 -25.554837 -3.192565 2.085266 -1.644267 -0.340469 2.745139 -1.014857 -0.106560 0.120570 -0.032230 -0.119380 
-0.344940 16.829190 -1.813310 -6.970300 -63.265489 8.672396 -15.295239 13.822914 4.247074 15.460160 -2.650283 -16.127715 -9.730560 3.841539 -1.409489 -0.029322 3.843057 3.127146 0.180900 0.232350 0.148820 17.866130 -10.673896 2.061263 -10.362356 -0.233201 -8.312812 0.244568 -3.996141 15.158089 -0.206934 -3.078966 3.309189 0.131970 0.008500 -0.014810 -2.850625 -4.134803 -7.710350 -2.457021 -0.040628 14.722271 -8.485393 1.092296 -3.975646 2.914829 -8.208168 -13.266780 -22.188874 23.519344 28.233869 3.349080 19.607080 -8.426460 -25.952778 -10.154779 -1.215692 -17.610189 -18.808122 0.702758 2.308811 -5.700515 -0.282418 -3.915979 2.784972 0.261770 -0.038630 0.123340 0.039540 22.424659 12.329914 13.130480 25.813758 -23.270030 -3.158061 1.532557 -2.203411 -0.173563 2.730974 -1.055956 -0.101770 0.134010 -0.040490 -0.116380 
-0.312030 16.811840 -1.928380 -6.288742 -63.883286 7.325112 -15.253303 13.888655 4.180248 15.629876 -2.584313 -16.336677 -9.408789 4.032848 -0.135213 -0.068196 3.811953 3.126465 0.207430 0.264830 0.164490 17.890482 -10.765591 2.049841 -10.175502 -0.119367 -9.227536 -0.097951 -3.991522 16.584170 -0.200430 -3.083347 3.294078 0.158660 0.003140 -0.013960 -2.929499 -4.050977 -7.640050 -2.177821 -0.060041 15.222191 -7.528795 1.345613 -2.729049 1.696299 -8.564965 -13.520678 -23.573979 23.653619 28.040982 2.837490 19.465550 -8.969580 -26.049368 -11.961304 -0.814706 -15.600101 -19.927126 0.143175 4.735961 -6.330395 -0.484316 -3.926612 2.787378 0.259830 -0.038740 0.126900 0.043730 24.740335 14.136019 13.516087 28.264039 -20.357225 -2.968287 2.287099 -3.034616 -0.174427 2.715980 -1.082694 -0.098870 0.144580 -0.047090 -0.117350 
